<svg width="1200" height="380" viewBox="0 0 1200 380" xmlns="http://www.w3.org/2000/svg" role="img" aria-labelledby="title desc">
<title id="title">Matheus José GitHub contribution activity</title>
<desc id="desc">Local contribution activity graph with 153 contributions in 2026 through 2026-08-10.</desc>
<defs>
<linearGradient id="bg" x1="0" y1="0" x2="1200" y2="380" gradientUnits="userSpaceOnUse"><stop offset="0" stop-color="#050814"/><stop offset="0.52" stop-color="#0d1117"/><stop offset="1" stop-color="#101a2a"/></linearGradient>
<linearGradient id="accent" x1="0" y1="0" x2="1200" y2="0" gradientUnits="userSpaceOnUse"><stop offset="0" stop-color="#00ff88"/><stop offset="0.55" stop-color="#00d4ff"/><stop offset="1" stop-color="#bc13fe"/></linearGradient>
<pattern id="grid" width="32" height="32" patternUnits="userSpaceOnUse"><path d="M32 0H0V32" fill="none" stroke="#8b949e" stroke-opacity="0.07" stroke-width="1"/></pattern>
</defs>
<rect x="0" y="0" width="1200" height="380" rx="18" fill="url(#bg)"/>
<rect x="0" y="0" width="1200" height="380" rx="18" fill="url(#grid)" opacity="0.85"/>
<rect x="32" y="30" width="1136" height="320" rx="20" fill="#0d1117" opacity="0.74" stroke="#263241" stroke-width="1.4"/>
<path d="M52 92H1148" stroke="url(#accent)" stroke-width="2" opacity="0.72"/>
<g font-family="Consolas, 'Courier New', monospace">
<text x="62" y="58" fill="#00ff88" font-size="15" font-weight="700">&gt; activity --local</text>
<text x="62" y="78" fill="#8b949e" font-size="11">source: GitHub GraphQL API • generated locally • no external graph service</text>
</g>
<g font-family="Inter, Segoe UI, Arial, sans-serif">
<text x="62" y="132" fill="#e6edf3" font-size="28" font-weight="800">Contribution Activity</text>
<text x="62" y="158" fill="#8b949e" font-size="13">2026 year-to-date • 153 contributions • 21 active days • best day 2026-07-09 with 30</text>
</g>
<text x="74" y="174" fill="#57606a" font-family="Consolas, 'Courier New', monospace" font-size="10">JAN</text>
<text x="154" y="174" fill="#57606a" font-family="Consolas, 'Courier New', monospace" font-size="10">FEB</text>
<text x="218" y="174" fill="#57606a" font-family="Consolas, 'Courier New', monospace" font-size="10">MAR</text>
<text x="38" y="210" fill="#57606a" font-family="Consolas, 'Courier New', monospace" font-size="10">MON</text>
<text x="38" y="242" fill="#57606a" font-family="Consolas, 'Courier New', monospace" font-size="10">WED</text>
<text x="38" y="274" fill="#57606a" font-family="Consolas, 'Courier New', monospace" font-size="10">FRI</text>
<rect x="74" y="248" width="12" height="12" rx="3" fill="#161b22" stroke="#0d1117" stroke-width="1"><title>2026-01-01: 0 contributions</title></rect>
<rect x="74" y="264" width="12" height="12" rx="3" fill="#161b22" stroke="#0d1117" stroke-width="1"><title>2026-01-02: 0 contributions</title></rect>
<rect x="74" y="280" width="12" height="12" rx="3" fill="#161b22" stroke="#0d1117" stroke-width="1"><title>2026-01-03: 0 contributions</title></rect>
<rect x="90" y="184" width="12" height="12" rx="3" fill="#161b22" stroke="#0d1117" stroke-width="1"><title>2026-01-04: 0 contributions</title></rect>
<rect x="90" y="200" width="12" height="12" rx="3" fill="#161b22" stroke="#0d1117" stroke-width="1"><title>2026-01-05: 0 contributions</title></rect>
<rect x="90" y="216" width="12" height="12" rx="3" fill="#161b22" stroke="#0d1117" stroke-width="1"><title>2026-01-06: 0 contributions</title></rect>
<rect x="90" y="232" width="12" height="12" rx="3" fill="#161b22" stroke="#0d1117" stroke-width="1"><title>2026-01-07: 0 contributions</title></rect>
<rect x="90" y="248" width="12" height="12" rx="3" fill="#161b22" stroke="#0d1117" stroke-width="1"><title>2026-01-08: 0 contributions</title></rect>
<rect x="90" y="264" width="12" height="12" rx="3" fill="#161b22" stroke="#0d1117" stroke-width="1"><title>2026-01-09: 0 contributions</title></rect>
<rect x="90" y="280" width="12" height="12" rx="3" fill="#161b22" stroke="#0d1117" stroke-width="1"><title>2026-01-10: 0 contributions</title></rect>
<rect x="106" y="184" width="12" height="12" rx="3" fill="#161b22" stroke="#0d1117" stroke-width="1"><title>2026-01-11: 0 contributions</title></rect>
<rect x="106" y="200" width="12" height="12" rx="3" fill="#161b22" stroke="#0d1117" stroke-width="1"><title>2026-01-12: 0 contributions</title></rect>
<rect x="106" y="216" width="12" height="12" rx="3" fill="#161b22" stroke="#0d1117" stroke-width="1"><title>2026-01-13: 0 contributions</title></rect>
<rect x="106" y="232" width="12" height="12" rx="3" fill="#161b22" stroke="#0d1117" stroke-width="1"><title>2026-01-14: 0 contributions</title></rect>
<rect x="106" y="248" width="12" height="12" rx="3" fill="#161b22" stroke="#0d1117" stroke-width="1"><title>2026-01-15: 0 contributions</title></rect>
<rect x="106" y="264" width="12" height="12" rx="3" fill="#161b22" stroke="#0d1117" stroke-width="1"><title>2026-01-16: 0 contributions</title></rect>
<rect x="106" y="280" width="12" height="12" rx="3" fill="#161b22" stroke="#0d1117" stroke-width="1"><title>2026-01-17: 0 contributions</title></rect>
<rect x="122" y="184" width="12" height="12" rx="3" fill="#161b22" stroke="#0d1117" stroke-width="1"><title>2026-01-18: 0 contributions</title></rect>
<rect x="122" y="200" width="12" height="12" rx="3" fill="#161b22" stroke="#0d1117" stroke-width="1"><title>2026-01-19: 0 contributions</title></rect>
<rect x="122" y="216" width="12" height="12" rx="3" fill="#161b22" stroke="#0d1117" stroke-width="1"><title>2026-01-20: 0 contributions</title></rect>
<rect x="122" y="232" width="12" height="12" rx="3" fill="#161b22" stroke="#0d1117" stroke-width="1"><title>2026-01-21: 0 contributions</title></rect>
<rect x="122" y="248" width="12" height="12" rx="3" fill="#161b22" stroke="#0d1117" stroke-width="1"><title>2026-01-22: 0 contributions</title></rect>
<rect x="122" y="264" width="12" height="12" rx="3" fill="#161b22" stroke="#0d1117" stroke-width="1"><title>2026-01-23: 0 contributions</title></rect>
<rect x="122" y="280" width="12" height="12" rx="3" fill="#161b22" stroke="#0d1117" stroke-width="1"><title>2026-01-24: 0 contributions</title></rect>
<rect x="138" y="184" width="12" height="12" rx="3" fill="#161b22" stroke="#0d1117" stroke-width="1"><title>2026-01-25: 0 contributions</title></rect>
<rect x="138" y="200" width="12" height="12" rx="3" fill="#161b22" stroke="#0d1117" stroke-width="1"><title>2026-01-26: 0 contributions</title></rect>
<rect x="138" y="216" width="12" height="12" rx="3" fill="#161b22" stroke="#0d1117" stroke-width="1"><title>2026-01-27: 0 contributions</title></rect>
<rect x="138" y="232" width="12" height="12" rx="3" fill="#161b22" stroke="#0d1117" stroke-width="1"><title>2026-01-28: 0 contributions</title></rect>
<rect x="138" y="248" width="12" height="12" rx="3" fill="#161b22" stroke="#0d1117" stroke-width="1"><title>2026-01-29: 0 contributions</title></rect>
<rect x="138" y="264" width="12" height="12" rx="3" fill="#161b22" stroke="#0d1117" stroke-width="1"><title>2026-01-30: 0 contributions</title></rect>
<rect x="138" y="280" width="12" height="12" rx="3" fill="#161b22" stroke="#0d1117" stroke-width="1"><title>2026-01-31: 0 contributions</title></rect>
<rect x="154" y="184" width="12" height="12" rx="3" fill="#161b22" stroke="#0d1117" stroke-width="1"><title>2026-02-01: 0 contributions</title></rect>
<rect x="154" y="200" width="12" height="12" rx="3" fill="#161b22" stroke="#0d1117" stroke-width="1"><title>2026-02-02: 0 contributions</title></rect>
<rect x="154" y="216" width="12" height="12" rx="3" fill="#161b22" stroke="#0d1117" stroke-width="1"><title>2026-02-03: 0 contributions</title></rect>
<rect x="154" y="232" width="12" height="12" rx="3" fill="#161b22" stroke="#0d1117" stroke-width="1"><title>2026-02-04: 0 contributions</title></rect>
<rect x="154" y="248" width="12" height="12" rx="3" fill="#161b22" stroke="#0d1117" stroke-width="1"><title>2026-02-05: 0 contributions</title></rect>
<rect x="154" y="264" width="12" height="12" rx="3" fill="#161b22" stroke="#0d1117" stroke-width="1"><title>2026-02-06: 0 contributions</title></rect>
<rect x="154" y="280" width="12" height="12" rx="3" fill="#161b22" stroke="#0d1117" stroke-width="1"><title>2026-02-07: 0 contributions</title></rect>
<rect x="170" y="184" width="12" height="12" rx="3" fill="#161b22" stroke="#0d1117" stroke-width="1"><title>2026-02-08: 0 contributions</title></rect>
<rect x="170" y="200" width="12" height="12" rx="3" fill="#161b22" stroke="#0d1117" stroke-width="1"><title>2026-02-09: 0 contributions</title></rect>
<rect x="170" y="216" width="12" height="12" rx="3" fill="#161b22" stroke="#0d1117" stroke-width="1"><title>2026-02-10: 0 contributions</title></rect>
<rect x="170" y="232" width="12" height="12" rx="3" fill="#161b22" stroke="#0d1117" stroke-width="1"><title>2026-02-11: 0 contributions</title></rect>
<rect x="170" y="248" width="12" height="12" rx="3" fill="#161b22" stroke="#0d1117" stroke-width="1"><title>2026-02-12: 0 contributions</title></rect>
<rect x="170" y="264" width="12" height="12" rx="3" fill="#161b22" stroke="#0d1117" stroke-width="1"><title>2026-02-13: 0 contributions</title></rect>
<rect x="170" y="280" width="12" height="12" rx="3" fill="#161b22" stroke="#0d1117" stroke-width="1"><title>2026-02-14: 0 contributions</title></rect>
<rect x="186" y="184" width="12" height="12" rx="3" fill="#161b22" stroke="#0d1117" stroke-width="1"><title>2026-02-15: 0 contributions</title></rect>
<rect x="186" y="200" width="12" height="12" rx="3" fill="#161b22" stroke="#0d1117" stroke-width="1"><title>2026-02-16: 0 contributions</title></rect>
<rect x="186" y="216" width="12" height="12" rx="3" fill="#161b22" stroke="#0d1117" stroke-width="1"><title>2026-02-17: 0 contributions</title></rect>
<rect x="186" y="232" width="12" height="12" rx="3" fill="#161b22" stroke="#0d1117" stroke-width="1"><title>2026-02-18: 0 contributions</title></rect>
<rect x="186" y="248" width="12" height="12" rx="3" fill="#161b22" stroke="#0d1117" stroke-width="1"><title>2026-02-19: 0 contributions</title></rect>
<rect x="186" y="264" width="12" height="12" rx="3" fill="#161b22" stroke="#0d1117" stroke-width="1"><title>2026-02-20: 0 contributions</title></rect>
<rect x="186" y="280" width="12" height="12" rx="3" fill="#006d32" stroke="#0d1117" stroke-width="1"><title>2026-02-21: 4 contributions</title></rect>
<rect x="202" y="184" width="12" height="12" rx="3" fill="#161b22" stroke="#0d1117" stroke-width="1"><title>2026-02-22: 0 contributions</title></rect>
<rect x="202" y="200" width="12" height="12" rx="3" fill="#161b22" stroke="#0d1117" stroke-width="1"><title>2026-02-23: 0 contributions</title></rect>
<rect x="202" y="216" width="12" height="12" rx="3" fill="#161b22" stroke="#0d1117" stroke-width="1"><title>2026-02-24: 0 contributions</title></rect>
<rect x="202" y="232" width="12" height="12" rx="3" fill="#161b22" stroke="#0d1117" stroke-width="1"><title>2026-02-25: 0 contributions</title></rect>
<rect x="202" y="248" width="12" height="12" rx="3" fill="#161b22" stroke="#0d1117" stroke-width="1"><title>2026-02-26: 0 contributions</title></rect>
<rect x="202" y="264" width="12" height="12" rx="3" fill="#161b22" stroke="#0d1117" stroke-width="1"><title>2026-02-27: 0 contributions</title></rect>
<rect x="202" y="280" width="12" height="12" rx="3" fill="#26a641" stroke="#0d1117" stroke-width="1"><title>2026-02-28: 7 contributions</title></rect>
<rect x="218" y="184" width="12" height="12" rx="3" fill="#006d32" stroke="#0d1117" stroke-width="1"><title>2026-03-01: 3 contributions</title></rect>
<rect x="218" y="200" width="12" height="12" rx="3" fill="#161b22" stroke="#0d1117" stroke-width="1"><title>2026-03-02: 0 contributions</title></rect>
<rect x="218" y="216" width="12" height="12" rx="3" fill="#161b22" stroke="#0d1117" stroke-width="1"><title>2026-03-03: 0 contributions</title></rect>
<rect x="218" y="232" width="12" height="12" rx="3" fill="#161b22" stroke="#0d1117" stroke-width="1"><title>2026-03-04: 0 contributions</title></rect>
<rect x="218" y="248" width="12" height="12" rx="3" fill="#006d32" stroke="#0d1117" stroke-width="1"><title>2026-03-05: 3 contributions</title></rect>
<rect x="218" y="264" width="12" height="12" rx="3" fill="#161b22" stroke="#0d1117" stroke-width="1"><title>2026-03-06: 0 contributions</title></rect>
<rect x="218" y="280" width="12" height="12" rx="3" fill="#161b22" stroke="#0d1117" stroke-width="1"><title>2026-03-07: 0 contributions</title></rect>
<rect x="234" y="184" width="12" height="12" rx="3" fill="#161b22" stroke="#0d1117" stroke-width="1"><title>2026-03-08: 0 contributions</title></rect>
<rect x="234" y="200" width="12" height="12" rx="3" fill="#0e4429" stroke="#0d1117" stroke-width="1"><title>2026-03-09: 2 contributions</title></rect>
<rect x="234" y="216" width="12" height="12" rx="3" fill="#161b22" stroke="#0d1117" stroke-width="1"><title>2026-03-10: 0 contributions</title></rect>
<rect x="234" y="232" width="12" height="12" rx="3" fill="#161b22" stroke="#0d1117" stroke-width="1"><title>2026-03-11: 0 contributions</title></rect>
<rect x="234" y="248" width="12" height="12" rx="3" fill="#161b22" stroke="#0d1117" stroke-width="1"><title>2026-03-12: 0 contributions</title></rect>
<rect x="234" y="264" width="12" height="12" rx="3" fill="#161b22" stroke="#0d1117" stroke-width="1"><title>2026-03-13: 0 contributions</title></rect>
<rect x="234" y="280" width="12" height="12" rx="3" fill="#161b22" stroke="#0d1117" stroke-width="1"><title>2026-03-14: 0 contributions</title></rect>
<rect x="250" y="184" width="12" height="12" rx="3" fill="#161b22" stroke="#0d1117" stroke-width="1"><title>2026-03-15: 0 contributions</title></rect>
<rect x="250" y="200" width="12" height="12" rx="3" fill="#161b22" stroke="#0d1117" stroke-width="1"><title>2026-03-16: 0 contributions</title></rect>
<rect x="250" y="216" width="12" height="12" rx="3" fill="#161b22" stroke="#0d1117" stroke-width="1"><title>2026-03-17: 0 contributions</title></rect>
<rect x="250" y="232" width="12" height="12" rx="3" fill="#161b22" stroke="#0d1117" stroke-width="1"><title>2026-03-18: 0 contributions</title></rect>
<rect x="250" y="248" width="12" height="12" rx="3" fill="#0e4429" stroke="#0d1117" stroke-width="1"><title>2026-03-19: 2 contributions</title></rect>
<rect x="250" y="264" width="12" height="12" rx="3" fill="#161b22" stroke="#0d1117" stroke-width="1"><title>2026-03-20: 0 contributions</title></rect>
<rect x="250" y="280" width="12" height="12" rx="3" fill="#161b22" stroke="#0d1117" stroke-width="1"><title>2026-03-21: 0 contributions</title></rect>
<rect x="266" y="184" width="12" height="12" rx="3" fill="#161b22" stroke="#0d1117" stroke-width="1"><title>2026-03-22: 0 contributions</title></rect>
<rect x="266" y="200" width="12" height="12" rx="3" fill="#161b22" stroke="#0d1117" stroke-width="1"><title>2026-03-23: 0 contributions</title></rect>
<rect x="266" y="216" width="12" height="12" rx="3" fill="#161b22" stroke="#0d1117" stroke-width="1"><title>2026-03-24: 0 contributions</title></rect>
<rect x="266" y="232" width="12" height="12" rx="3" fill="#161b22" stroke="#0d1117" stroke-width="1"><title>2026-03-25: 0 contributions</title></rect>
<rect x="266" y="248" width="12" height="12" rx="3" fill="#161b22" stroke="#0d1117" stroke-width="1"><title>2026-03-26: 0 contributions</title></rect>
<rect x="266" y="264" width="12" height="12" rx="3" fill="#161b22" stroke="#0d1117" stroke-width="1"><title>2026-03-27: 0 contributions</title></rect>
<rect x="266" y="280" width="12" height="12" rx="3" fill="#161b22" stroke="#0d1117" stroke-width="1"><title>2026-03-28: 0 contributions</title></rect>
<rect x="282" y="184" width="12" height="12" rx="3" fill="#161b22" stroke="#0d1117" stroke-width="1"><title>2026-03-29: 0 contributions</title></rect>
<rect x="282" y="200" width="12" height="12" rx="3" fill="#161b22" stroke="#0d1117" stroke-width="1"><title>2026-03-30: 0 contributions</title></rect>
<rect x="282" y="216" width="12" height="12" rx="3" fill="#161b22" stroke="#0d1117" stroke-width="1"><title>2026-03-31: 0 contributions</title></rect>
<rect x="282" y="232" width="12" height="12" rx="3" fill="#161b22" stroke="#0d1117" stroke-width="1"><title>2026-04-01: 0 contributions</title></rect>
<rect x="282" y="248" width="12" height="12" rx="3" fill="#0e4429" stroke="#0d1117" stroke-width="1"><title>2026-04-02: 1 contribution</title></rect>
<rect x="282" y="264" width="12" height="12" rx="3" fill="#006d32" stroke="#0d1117" stroke-width="1"><title>2026-04-03: 5 contributions</title></rect>
<rect x="282" y="280" width="12" height="12" rx="3" fill="#161b22" stroke="#0d1117" stroke-width="1"><title>2026-04-04: 0 contributions</title></rect>
<rect x="298" y="184" width="12" height="12" rx="3" fill="#161b22" stroke="#0d1117" stroke-width="1"><title>2026-04-05: 0 contributions</title></rect>
<rect x="298" y="200" width="12" height="12" rx="3" fill="#006d32" stroke="#0d1117" stroke-width="1"><title>2026-04-06: 6 contributions</title></rect>
<rect x="298" y="216" width="12" height="12" rx="3" fill="#161b22" stroke="#0d1117" stroke-width="1"><title>2026-04-07: 0 contributions</title></rect>
<rect x="298" y="232" width="12" height="12" rx="3" fill="#26a641" stroke="#0d1117" stroke-width="1"><title>2026-04-08: 7 contributions</title></rect>
<rect x="298" y="248" width="12" height="12" rx="3" fill="#161b22" stroke="#0d1117" stroke-width="1"><title>2026-04-09: 0 contributions</title></rect>
<rect x="298" y="264" width="12" height="12" rx="3" fill="#161b22" stroke="#0d1117" stroke-width="1"><title>2026-04-10: 0 contributions</title></rect>
<rect x="298" y="280" width="12" height="12" rx="3" fill="#161b22" stroke="#0d1117" stroke-width="1"><title>2026-04-11: 0 contributions</title></rect>
<rect x="314" y="184" width="12" height="12" rx="3" fill="#161b22" stroke="#0d1117" stroke-width="1"><title>2026-04-12: 0 contributions</title></rect>
<rect x="314" y="200" width="12" height="12" rx="3" fill="#161b22" stroke="#0d1117" stroke-width="1"><title>2026-04-13: 0 contributions</title></rect>
<rect x="314" y="216" width="12" height="12" rx="3" fill="#161b22" stroke="#0d1117" stroke-width="1"><title>2026-04-14: 0 contributions</title></rect>
<rect x="314" y="232" width="12" height="12" rx="3" fill="#161b22" stroke="#0d1117" stroke-width="1"><title>2026-04-15: 0 contributions</title></rect>
<rect x="314" y="248" width="12" height="12" rx="3" fill="#161b22" stroke="#0d1117" stroke-width="1"><title>2026-04-16: 0 contributions</title></rect>
<rect x="314" y="264" width="12" height="12" rx="3" fill="#161b22" stroke="#0d1117" stroke-width="1"><title>2026-04-17: 0 contributions</title></rect>
<rect x="314" y="280" width="12" height="12" rx="3" fill="#161b22" stroke="#0d1117" stroke-width="1"><title>2026-04-18: 0 contributions</title></rect>
<rect x="330" y="184" width="12" height="12" rx="3" fill="#161b22" stroke="#0d1117" stroke-width="1"><title>2026-04-19: 0 contributions</title></rect>
<rect x="330" y="200" width="12" height="12" rx="3" fill="#161b22" stroke="#0d1117" stroke-width="1"><title>2026-04-20: 0 contributions</title></rect>
<rect x="330" y="216" width="12" height="12" rx="3" fill="#161b22" stroke="#0d1117" stroke-width="1"><title>2026-04-21: 0 contributions</title></rect>
<rect x="330" y="232" width="12" height="12" rx="3" fill="#161b22" stroke="#0d1117" stroke-width="1"><title>2026-04-22: 0 contributions</title></rect>
<rect x="330" y="248" width="12" height="12" rx="3" fill="#161b22" stroke="#0d1117" stroke-width="1"><title>2026-04-23: 0 contributions</title></rect>
<rect x="330" y="264" width="12" height="12" rx="3" fill="#161b22" stroke="#0d1117" stroke-width="1"><title>2026-04-24: 0 contributions</title></rect>
<rect x="330" y="280" width="12" height="12" rx="3" fill="#161b22" stroke="#0d1117" stroke-width="1"><title>2026-04-25: 0 contributions</title></rect>
<rect x="346" y="184" width="12" height="12" rx="3" fill="#161b22" stroke="#0d1117" stroke-width="1"><title>2026-04-26: 0 contributions</title></rect>
<rect x="346" y="200" width="12" height="12" rx="3" fill="#161b22" stroke="#0d1117" stroke-width="1"><title>2026-04-27: 0 contributions</title></rect>
<rect x="346" y="216" width="12" height="12" rx="3" fill="#161b22" stroke="#0d1117" stroke-width="1"><title>2026-04-28: 0 contributions</title></rect>
<rect x="346" y="232" width="12" height="12" rx="3" fill="#161b22" stroke="#0d1117" stroke-width="1"><title>2026-04-29: 0 contributions</title></rect>
<rect x="346" y="248" width="12" height="12" rx="3" fill="#161b22" stroke="#0d1117" stroke-width="1"><title>2026-04-30: 0 contributions</title></rect>
<rect x="346" y="264" width="12" height="12" rx="3" fill="#161b22" stroke="#0d1117" stroke-width="1"><title>2026-05-01: 0 contributions</title></rect>
<rect x="346" y="280" width="12" height="12" rx="3" fill="#161b22" stroke="#0d1117" stroke-width="1"><title>2026-05-02: 0 contributions</title></rect>
<rect x="362" y="184" width="12" height="12" rx="3" fill="#161b22" stroke="#0d1117" stroke-width="1"><title>2026-05-03: 0 contributions</title></rect>
<rect x="362" y="200" width="12" height="12" rx="3" fill="#161b22" stroke="#0d1117" stroke-width="1"><title>2026-05-04: 0 contributions</title></rect>
<rect x="362" y="216" width="12" height="12" rx="3" fill="#161b22" stroke="#0d1117" stroke-width="1"><title>2026-05-05: 0 contributions</title></rect>
<rect x="362" y="232" width="12" height="12" rx="3" fill="#161b22" stroke="#0d1117" stroke-width="1"><title>2026-05-06: 0 contributions</title></rect>
<rect x="362" y="248" width="12" height="12" rx="3" fill="#161b22" stroke="#0d1117" stroke-width="1"><title>2026-05-07: 0 contributions</title></rect>
<rect x="362" y="264" width="12" height="12" rx="3" fill="#161b22" stroke="#0d1117" stroke-width="1"><title>2026-05-08: 0 contributions</title></rect>
<rect x="362" y="280" width="12" height="12" rx="3" fill="#161b22" stroke="#0d1117" stroke-width="1"><title>2026-05-09: 0 contributions</title></rect>
<rect x="378" y="184" width="12" height="12" rx="3" fill="#161b22" stroke="#0d1117" stroke-width="1"><title>2026-05-10: 0 contributions</title></rect>
<rect x="378" y="200" width="12" height="12" rx="3" fill="#161b22" stroke="#0d1117" stroke-width="1"><title>2026-05-11: 0 contributions</title></rect>
<rect x="378" y="216" width="12" height="12" rx="3" fill="#161b22" stroke="#0d1117" stroke-width="1"><title>2026-05-12: 0 contributions</title></rect>
<rect x="378" y="232" width="12" height="12" rx="3" fill="#161b22" stroke="#0d1117" stroke-width="1"><title>2026-05-13: 0 contributions</title></rect>
<rect x="378" y="248" width="12" height="12" rx="3" fill="#161b22" stroke="#0d1117" stroke-width="1"><title>2026-05-14: 0 contributions</title></rect>
<rect x="378" y="264" width="12" height="12" rx="3" fill="#161b22" stroke="#0d1117" stroke-width="1"><title>2026-05-15: 0 contributions</title></rect>
<rect x="378" y="280" width="12" height="12" rx="3" fill="#161b22" stroke="#0d1117" stroke-width="1"><title>2026-05-16: 0 contributions</title></rect>
<rect x="394" y="184" width="12" height="12" rx="3" fill="#161b22" stroke="#0d1117" stroke-width="1"><title>2026-05-17: 0 contributions</title></rect>
<rect x="394" y="200" width="12" height="12" rx="3" fill="#161b22" stroke="#0d1117" stroke-width="1"><title>2026-05-18: 0 contributions</title></rect>
<rect x="394" y="216" width="12" height="12" rx="3" fill="#161b22" stroke="#0d1117" stroke-width="1"><title>2026-05-19: 0 contributions</title></rect>
<rect x="394" y="232" width="12" height="12" rx="3" fill="#161b22" stroke="#0d1117" stroke-width="1"><title>2026-05-20: 0 contributions</title></rect>
<rect x="394" y="248" width="12" height="12" rx="3" fill="#161b22" stroke="#0d1117" stroke-width="1"><title>2026-05-21: 0 contributions</title></rect>
<rect x="394" y="264" width="12" height="12" rx="3" fill="#161b22" stroke="#0d1117" stroke-width="1"><title>2026-05-22: 0 contributions</title></rect>
<rect x="394" y="280" width="12" height="12" rx="3" fill="#161b22" stroke="#0d1117" stroke-width="1"><title>2026-05-23: 0 contributions</title></rect>
<rect x="410" y="184" width="12" height="12" rx="3" fill="#161b22" stroke="#0d1117" stroke-width="1"><title>2026-05-24: 0 contributions</title></rect>
<rect x="410" y="200" width="12" height="12" rx="3" fill="#161b22" stroke="#0d1117" stroke-width="1"><title>2026-05-25: 0 contributions</title></rect>
<rect x="410" y="216" width="12" height="12" rx="3" fill="#161b22" stroke="#0d1117" stroke-width="1"><title>2026-05-26: 0 contributions</title></rect>
<rect x="410" y="232" width="12" height="12" rx="3" fill="#161b22" stroke="#0d1117" stroke-width="1"><title>2026-05-27: 0 contributions</title></rect>
<rect x="410" y="248" width="12" height="12" rx="3" fill="#161b22" stroke="#0d1117" stroke-width="1"><title>2026-05-28: 0 contributions</title></rect>
<rect x="410" y="264" width="12" height="12" rx="3" fill="#161b22" stroke="#0d1117" stroke-width="1"><title>2026-05-29: 0 contributions</title></rect>
<rect x="410" y="280" width="12" height="12" rx="3" fill="#161b22" stroke="#0d1117" stroke-width="1"><title>2026-05-30: 0 contributions</title></rect>
<rect x="426" y="184" width="12" height="12" rx="3" fill="#161b22" stroke="#0d1117" stroke-width="1"><title>2026-05-31: 0 contributions</title></rect>
<rect x="426" y="200" width="12" height="12" rx="3" fill="#161b22" stroke="#0d1117" stroke-width="1"><title>2026-06-01: 0 contributions</title></rect>
<rect x="426" y="216" width="12" height="12" rx="3" fill="#161b22" stroke="#0d1117" stroke-width="1"><title>2026-06-02: 0 contributions</title></rect>
<rect x="426" y="232" width="12" height="12" rx="3" fill="#161b22" stroke="#0d1117" stroke-width="1"><title>2026-06-03: 0 contributions</title></rect>
<rect x="426" y="248" width="12" height="12" rx="3" fill="#161b22" stroke="#0d1117" stroke-width="1"><title>2026-06-04: 0 contributions</title></rect>
<rect x="426" y="264" width="12" height="12" rx="3" fill="#161b22" stroke="#0d1117" stroke-width="1"><title>2026-06-05: 0 contributions</title></rect>
<rect x="426" y="280" width="12" height="12" rx="3" fill="#161b22" stroke="#0d1117" stroke-width="1"><title>2026-06-06: 0 contributions</title></rect>
<rect x="442" y="184" width="12" height="12" rx="3" fill="#161b22" stroke="#0d1117" stroke-width="1"><title>2026-06-07: 0 contributions</title></rect>
<rect x="442" y="200" width="12" height="12" rx="3" fill="#161b22" stroke="#0d1117" stroke-width="1"><title>2026-06-08: 0 contributions</title></rect>
<rect x="442" y="216" width="12" height="12" rx="3" fill="#161b22" stroke="#0d1117" stroke-width="1"><title>2026-06-09: 0 contributions</title></rect>
<rect x="442" y="232" width="12" height="12" rx="3" fill="#161b22" stroke="#0d1117" stroke-width="1"><title>2026-06-10: 0 contributions</title></rect>
<rect x="442" y="248" width="12" height="12" rx="3" fill="#161b22" stroke="#0d1117" stroke-width="1"><title>2026-06-11: 0 contributions</title></rect>
<rect x="442" y="264" width="12" height="12" rx="3" fill="#161b22" stroke="#0d1117" stroke-width="1"><title>2026-06-12: 0 contributions</title></rect>
<rect x="442" y="280" width="12" height="12" rx="3" fill="#161b22" stroke="#0d1117" stroke-width="1"><title>2026-06-13: 0 contributions</title></rect>
<rect x="458" y="184" width="12" height="12" rx="3" fill="#161b22" stroke="#0d1117" stroke-width="1"><title>2026-06-14: 0 contributions</title></rect>
<rect x="458" y="200" width="12" height="12" rx="3" fill="#161b22" stroke="#0d1117" stroke-width="1"><title>2026-06-15: 0 contributions</title></rect>
<rect x="458" y="216" width="12" height="12" rx="3" fill="#161b22" stroke="#0d1117" stroke-width="1"><title>2026-06-16: 0 contributions</title></rect>
<rect x="458" y="232" width="12" height="12" rx="3" fill="#161b22" stroke="#0d1117" stroke-width="1"><title>2026-06-17: 0 contributions</title></rect>
<rect x="458" y="248" width="12" height="12" rx="3" fill="#161b22" stroke="#0d1117" stroke-width="1"><title>2026-06-18: 0 contributions</title></rect>
<rect x="458" y="264" width="12" height="12" rx="3" fill="#161b22" stroke="#0d1117" stroke-width="1"><title>2026-06-19: 0 contributions</title></rect>
<rect x="458" y="280" width="12" height="12" rx="3" fill="#161b22" stroke="#0d1117" stroke-width="1"><title>2026-06-20: 0 contributions</title></rect>
<rect x="474" y="184" width="12" height="12" rx="3" fill="#161b22" stroke="#0d1117" stroke-width="1"><title>2026-06-21: 0 contributions</title></rect>
<rect x="474" y="200" width="12" height="12" rx="3" fill="#161b22" stroke="#0d1117" stroke-width="1"><title>2026-06-22: 0 contributions</title></rect>
<rect x="474" y="216" width="12" height="12" rx="3" fill="#161b22" stroke="#0d1117" stroke-width="1"><title>2026-06-23: 0 contributions</title></rect>
<rect x="474" y="232" width="12" height="12" rx="3" fill="#161b22" stroke="#0d1117" stroke-width="1"><title>2026-06-24: 0 contributions</title></rect>
<rect x="474" y="248" width="12" height="12" rx="3" fill="#161b22" stroke="#0d1117" stroke-width="1"><title>2026-06-25: 0 contributions</title></rect>
<rect x="474" y="264" width="12" height="12" rx="3" fill="#161b22" stroke="#0d1117" stroke-width="1"><title>2026-06-26: 0 contributions</title></rect>
<rect x="474" y="280" width="12" height="12" rx="3" fill="#161b22" stroke="#0d1117" stroke-width="1"><title>2026-06-27: 0 contributions</title></rect>
<rect x="490" y="184" width="12" height="12" rx="3" fill="#161b22" stroke="#0d1117" stroke-width="1"><title>2026-06-28: 0 contributions</title></rect>
<rect x="490" y="200" width="12" height="12" rx="3" fill="#161b22" stroke="#0d1117" stroke-width="1"><title>2026-06-29: 0 contributions</title></rect>
<rect x="490" y="216" width="12" height="12" rx="3" fill="#161b22" stroke="#0d1117" stroke-width="1"><title>2026-06-30: 0 contributions</title></rect>
<rect x="490" y="232" width="12" height="12" rx="3" fill="#161b22" stroke="#0d1117" stroke-width="1"><title>2026-07-01: 0 contributions</title></rect>
<rect x="490" y="248" width="12" height="12" rx="3" fill="#161b22" stroke="#0d1117" stroke-width="1"><title>2026-07-02: 0 contributions</title></rect>
<rect x="490" y="264" width="12" height="12" rx="3" fill="#161b22" stroke="#0d1117" stroke-width="1"><title>2026-07-03: 0 contributions</title></rect>
<rect x="490" y="280" width="12" height="12" rx="3" fill="#161b22" stroke="#0d1117" stroke-width="1"><title>2026-07-04: 0 contributions</title></rect>
<rect x="506" y="184" width="12" height="12" rx="3" fill="#161b22" stroke="#0d1117" stroke-width="1"><title>2026-07-05: 0 contributions</title></rect>
<rect x="506" y="200" width="12" height="12" rx="3" fill="#161b22" stroke="#0d1117" stroke-width="1"><title>2026-07-06: 0 contributions</title></rect>
<rect x="506" y="216" width="12" height="12" rx="3" fill="#0e4429" stroke="#0d1117" stroke-width="1"><title>2026-07-07: 1 contribution</title></rect>
<rect x="506" y="232" width="12" height="12" rx="3" fill="#26a641" stroke="#0d1117" stroke-width="1"><title>2026-07-08: 10 contributions</title></rect>
<rect x="506" y="248" width="12" height="12" rx="3" fill="#39d353" stroke="#0d1117" stroke-width="1"><title>2026-07-09: 30 contributions</title></rect>
<rect x="506" y="264" width="12" height="12" rx="3" fill="#26a641" stroke="#0d1117" stroke-width="1"><title>2026-07-10: 10 contributions</title></rect>
<rect x="506" y="280" width="12" height="12" rx="3" fill="#006d32" stroke="#0d1117" stroke-width="1"><title>2026-07-11: 4 contributions</title></rect>
<rect x="522" y="184" width="12" height="12" rx="3" fill="#39d353" stroke="#0d1117" stroke-width="1"><title>2026-07-12: 13 contributions</title></rect>
<rect x="522" y="200" width="12" height="12" rx="3" fill="#161b22" stroke="#0d1117" stroke-width="1"><title>2026-07-13: 0 contributions</title></rect>
<rect x="522" y="216" width="12" height="12" rx="3" fill="#161b22" stroke="#0d1117" stroke-width="1"><title>2026-07-14: 0 contributions</title></rect>
<rect x="522" y="232" width="12" height="12" rx="3" fill="#39d353" stroke="#0d1117" stroke-width="1"><title>2026-07-15: 22 contributions</title></rect>
<rect x="522" y="248" width="12" height="12" rx="3" fill="#161b22" stroke="#0d1117" stroke-width="1"><title>2026-07-16: 0 contributions</title></rect>
<rect x="522" y="264" width="12" height="12" rx="3" fill="#161b22" stroke="#0d1117" stroke-width="1"><title>2026-07-17: 0 contributions</title></rect>
<rect x="522" y="280" width="12" height="12" rx="3" fill="#0e4429" stroke="#0d1117" stroke-width="1"><title>2026-07-18: 1 contribution</title></rect>
<rect x="538" y="184" width="12" height="12" rx="3" fill="#161b22" stroke="#0d1117" stroke-width="1"><title>2026-07-19: 0 contributions</title></rect>
<rect x="538" y="200" width="12" height="12" rx="3" fill="#161b22" stroke="#0d1117" stroke-width="1"><title>2026-07-20: 0 contributions</title></rect>
<rect x="538" y="216" width="12" height="12" rx="3" fill="#006d32" stroke="#0d1117" stroke-width="1"><title>2026-07-21: 6 contributions</title></rect>
<rect x="538" y="232" width="12" height="12" rx="3" fill="#161b22" stroke="#0d1117" stroke-width="1"><title>2026-07-22: 0 contributions</title></rect>
<rect x="538" y="248" width="12" height="12" rx="3" fill="#161b22" stroke="#0d1117" stroke-width="1"><title>2026-07-23: 0 contributions</title></rect>
<rect x="538" y="264" width="12" height="12" rx="3" fill="#161b22" stroke="#0d1117" stroke-width="1"><title>2026-07-24: 0 contributions</title></rect>
<rect x="538" y="280" width="12" height="12" rx="3" fill="#161b22" stroke="#0d1117" stroke-width="1"><title>2026-07-25: 0 contributions</title></rect>
<rect x="554" y="184" width="12" height="12" rx="3" fill="#0e4429" stroke="#0d1117" stroke-width="1"><title>2026-07-26: 1 contribution</title></rect>
<rect x="554" y="200" width="12" height="12" rx="3" fill="#161b22" stroke="#0d1117" stroke-width="1"><title>2026-07-27: 0 contributions</title></rect>
<rect x="554" y="216" width="12" height="12" rx="3" fill="#161b22" stroke="#0d1117" stroke-width="1"><title>2026-07-28: 0 contributions</title></rect>
<rect x="554" y="232" width="12" height="12" rx="3" fill="#161b22" stroke="#0d1117" stroke-width="1"><title>2026-07-29: 0 contributions</title></rect>
<rect x="554" y="248" width="12" height="12" rx="3" fill="#161b22" stroke="#0d1117" stroke-width="1"><title>2026-07-30: 0 contributions</title></rect>
<rect x="554" y="264" width="12" height="12" rx="3" fill="#161b22" stroke="#0d1117" stroke-width="1"><title>2026-07-31: 0 contributions</title></rect>
<rect x="554" y="280" width="12" height="12" rx="3" fill="#161b22" stroke="#0d1117" stroke-width="1"><title>2026-08-01: 0 contributions</title></rect>
<rect x="570" y="184" width="12" height="12" rx="3" fill="#161b22" stroke="#0d1117" stroke-width="1"><title>2026-08-02: 0 contributions</title></rect>
<rect x="570" y="200" width="12" height="12" rx="3" fill="#161b22" stroke="#0d1117" stroke-width="1"><title>2026-08-03: 0 contributions</title></rect>
<rect x="570" y="216" width="12" height="12" rx="3" fill="#161b22" stroke="#0d1117" stroke-width="1"><title>2026-08-04: 0 contributions</title></rect>
<rect x="570" y="232" width="12" height="12" rx="3" fill="#161b22" stroke="#0d1117" stroke-width="1"><title>2026-08-05: 0 contributions</title></rect>
<rect x="570" y="248" width="12" height="12" rx="3" fill="#161b22" stroke="#0d1117" stroke-width="1"><title>2026-08-06: 0 contributions</title></rect>
<rect x="570" y="264" width="12" height="12" rx="3" fill="#161b22" stroke="#0d1117" stroke-width="1"><title>2026-08-07: 0 contributions</title></rect>
<rect x="570" y="280" width="12" height="12" rx="3" fill="#161b22" stroke="#0d1117" stroke-width="1"><title>2026-08-08: 0 contributions</title></rect>
<rect x="586" y="184" width="12" height="12" rx="3" fill="#161b22" stroke="#0d1117" stroke-width="1"><title>2026-08-09: 0 contributions</title></rect>
<rect x="586" y="200" width="12" height="12" rx="3" fill="#39d353" stroke="#0d1117" stroke-width="1"><title>2026-08-10: 15 contributions</title></rect>
<g font-family="Inter, Segoe UI, Arial, sans-serif">
<text x="696" y="132" fill="#e6edf3" font-size="18" font-weight="700">Weekly commits pulse</text>
<text x="696" y="154" fill="#8b949e" font-size="12">Compact trend from the same local data</text>
</g>
<rect x="696" y="265" width="8" height="5" rx="3" fill="#161b22"><title>week total: 0</title></rect>
<rect x="709" y="265" width="8" height="5" rx="3" fill="#161b22"><title>week total: 0</title></rect>
<rect x="722" y="265" width="8" height="5" rx="3" fill="#161b22"><title>week total: 0</title></rect>
<rect x="735" y="265" width="8" height="5" rx="3" fill="#161b22"><title>week total: 0</title></rect>
<rect x="748" y="265" width="8" height="5" rx="3" fill="#161b22"><title>week total: 0</title></rect>
<rect x="761" y="265" width="8" height="5" rx="3" fill="#161b22"><title>week total: 0</title></rect>
<rect x="774" y="265" width="8" height="5" rx="3" fill="#161b22"><title>week total: 0</title></rect>
<rect x="787" y="258" width="8" height="12" rx="3" fill="#0e4429"><title>week total: 4</title></rect>
<rect x="800" y="253" width="8" height="17" rx="3" fill="#006d32"><title>week total: 7</title></rect>
<rect x="813" y="254" width="8" height="16" rx="3" fill="#006d32"><title>week total: 6</title></rect>
<rect x="826" y="261" width="8" height="9" rx="3" fill="#0e4429"><title>week total: 2</title></rect>
<rect x="839" y="261" width="8" height="9" rx="3" fill="#0e4429"><title>week total: 2</title></rect>
<rect x="852" y="265" width="8" height="5" rx="3" fill="#161b22"><title>week total: 0</title></rect>
<rect x="865" y="254" width="8" height="16" rx="3" fill="#006d32"><title>week total: 6</title></rect>
<rect x="878" y="243" width="8" height="27" rx="3" fill="#006d32"><title>week total: 13</title></rect>
<rect x="891" y="265" width="8" height="5" rx="3" fill="#161b22"><title>week total: 0</title></rect>
<rect x="904" y="265" width="8" height="5" rx="3" fill="#161b22"><title>week total: 0</title></rect>
<rect x="917" y="265" width="8" height="5" rx="3" fill="#161b22"><title>week total: 0</title></rect>
<rect x="930" y="265" width="8" height="5" rx="3" fill="#161b22"><title>week total: 0</title></rect>
<rect x="943" y="265" width="8" height="5" rx="3" fill="#161b22"><title>week total: 0</title></rect>
<rect x="956" y="265" width="8" height="5" rx="3" fill="#161b22"><title>week total: 0</title></rect>
<rect x="969" y="265" width="8" height="5" rx="3" fill="#161b22"><title>week total: 0</title></rect>
<rect x="982" y="265" width="8" height="5" rx="3" fill="#161b22"><title>week total: 0</title></rect>
<rect x="995" y="265" width="8" height="5" rx="3" fill="#161b22"><title>week total: 0</title></rect>
<rect x="1008" y="265" width="8" height="5" rx="3" fill="#161b22"><title>week total: 0</title></rect>
<rect x="1021" y="265" width="8" height="5" rx="3" fill="#161b22"><title>week total: 0</title></rect>
<rect x="1034" y="265" width="8" height="5" rx="3" fill="#161b22"><title>week total: 0</title></rect>
<rect x="1047" y="172" width="8" height="98" rx="3" fill="#39d353"><title>week total: 55</title></rect>
<rect x="1060" y="204" width="8" height="66" rx="3" fill="#39d353"><title>week total: 36</title></rect>
<rect x="1073" y="254" width="8" height="16" rx="3" fill="#006d32"><title>week total: 6</title></rect>
<rect x="1086" y="263" width="8" height="7" rx="3" fill="#0e4429"><title>week total: 1</title></rect>
<rect x="1099" y="265" width="8" height="5" rx="3" fill="#161b22"><title>week total: 0</title></rect>
<rect x="1112" y="239" width="8" height="31" rx="3" fill="#26a641"><title>week total: 15</title></rect>
<rect x="696" y="296" width="120" height="44" rx="10" fill="#06090f" opacity="0.82" stroke="#263241"/>
<text x="710" y="313" fill="#8b949e" font-family="Consolas, 'Courier New', monospace" font-size="9">TOTAL</text>
<text x="710" y="331" fill="#00ff88" font-family="Consolas, 'Courier New', monospace" font-size="17" font-weight="700">153</text>
<rect x="838" y="296" width="120" height="44" rx="10" fill="#06090f" opacity="0.82" stroke="#263241"/>
<text x="852" y="313" fill="#8b949e" font-family="Consolas, 'Courier New', monospace" font-size="9">ACTIVE DAYS</text>
<text x="852" y="331" fill="#00d4ff" font-family="Consolas, 'Courier New', monospace" font-size="17" font-weight="700">21</text>
<rect x="1016" y="296" width="120" height="44" rx="10" fill="#06090f" opacity="0.82" stroke="#263241"/>
<text x="1030" y="313" fill="#8b949e" font-family="Consolas, 'Courier New', monospace" font-size="9">BEST DAY</text>
<text x="1030" y="331" fill="#bc13fe" font-family="Consolas, 'Courier New', monospace" font-size="17" font-weight="700">30</text>
<text x="74" y="328" fill="#8b949e" font-family="Consolas, 'Courier New', monospace" font-size="10">LESS</text>
<rect x="116" y="318" width="12" height="12" rx="3" fill="#161b22"/>
<rect x="134" y="318" width="12" height="12" rx="3" fill="#0e4429"/>
<rect x="152" y="318" width="12" height="12" rx="3" fill="#006d32"/>
<rect x="170" y="318" width="12" height="12" rx="3" fill="#26a641"/>
<rect x="188" y="318" width="12" height="12" rx="3" fill="#39d353"/>
<text x="216" y="328" fill="#8b949e" font-family="Consolas, 'Courier New', monospace" font-size="10">MORE</text>
<text x="62" y="344" fill="#57606a" font-family="Consolas, 'Courier New', monospace" font-size="10">generated_at=2026-08-10T23:59:59Z</text>
</svg>
